PathFileType	4	(X/Y/Z)	..\data\2015035\dynamic\2015035_C5_03.trc
DataRate	CameraRate	NumFrames	NumMarkers	Units	OrigDataRate	OrigDataStartFrame	OrigNumFrames
100.000000	100.000000	4	52	mm	100.000000	40	161
Frame#	Time	L_IAS			L_IPS			R_IPS			R_IAS			L_FTC			L_FLE			L_FME			L_FAX			L_TTC			L_FAL			L_TAM			L_FCC			L_FM1			L_FM2			L_FM5			R_FTC			R_FLE			R_FME			R_FAX			R_TTC			R_FAL			R_TAM			R_FCC			R_FM1			R_FM2			R_FM5			CV7			TV10			SXS			SJN			L_SIA			L_SRS			L_SAA			L_SAE			L_HLE			L_HME			L_UOA			L_RSP			L_UHE			L_HM2			L_HM5			R_SIA			R_SRS			R_SAA			R_SAE			R_HLE			R_HME			R_UOA			R_RSP			R_UHE			R_HM2			R_HM5			
		X1	Y1	Z1	X2	Y2	Z2	X3	Y3	Z3	X4	Y4	Z4	X5	Y5	Z5	X6	Y6	Z6	X7	Y7	Z7	X8	Y8	Z8	X9	Y9	Z9	X10	Y10	Z10	X11	Y11	Z11	X12	Y12	Z12	X13	Y13	Z13	X14	Y14	Z14	X15	Y15	Z15	X16	Y16	Z16	X17	Y17	Z17	X18	Y18	Z18	X19	Y19	Z19	X20	Y20	Z20	X21	Y21	Z21	X22	Y22	Z22	X23	Y23	Z23	X24	Y24	Z24	X25	Y25	Z25	X26	Y26	Z26	X27	Y27	Z27	X28	Y28	Z28	X29	Y29	Z29	X30	Y30	Z30	X31	Y31	Z31	X32	Y32	Z32	X33	Y33	Z33	X34	Y34	Z34	X35	Y35	Z35	X36	Y36	Z36	X37	Y37	Z37	X38	Y38	Z38	X39	Y39	Z39	X40	Y40	Z40	X41	Y41	Z41	X42	Y42	Z42	X43	Y43	Z43	X44	Y44	Z44	X45	Y45	Z45	X46	Y46	Z46	X47	Y47	Z47	X48	Y48	Z48	X49	Y49	Z49	X50	Y50	Z50	X51	Y51	Z51	X52	Y52	Z52	

41	0.4	-711.0317382812501	970.546813964844	143.462417602539	-904.5916137695315	994.363220214844	229.1400146484374	-901.9151000976565	991.1184692382815	314.3258361816406	-721.5718383789064	968.419616699219	407.8685607910156	-794.8582153320315	902.6948242187502	84.8327102661132	-619.8369140625001	495.0617065429689	91.73896026611322	-619.2280883789064	503.2617797851564	227.8477020263672	-631.5332031250001	445.0203857421876	89.50741577148432	-564.5011596679689	419.9398498535157	139.0418243408203	-687.4969482421876	89.42948150634767	137.3282165527343	-654.8382568359376	105.609001159668	228.2062683105468	-729.0556640625001	55.68367004394533	196.2427978515625	-540.6187744140626	37.3782081604004	209.6130676269531	-536.0443115234376	53.25707244873048	160.9725189208984	-584.3750610351564	34.90597152709962	111.2039642333984	-809.8980712890627	882.3770751953127	456.0474853515625	-859.5664672851565	463.0336303710939	395.0627136230469	-860.068786621094	474.9556884765626	271.6732788085937	-890.703308105469	421.8044738769532	392.743408203125	-829.531433105469	393.564178466797	341.1301574707031	-973.4805297851565	66.43608856201173	347.3527526855468	-928.5822753906252	88.07767486572267	263.5763549804687	-1008.093200683594	29.03467369079591	297.9552917480468	-815.587585449219	23.66830253601075	271.9728088378906	-797.6104736328127	31.99007225036622	328.0912170410156	-865.032165527344	15.78258895874024	379.5546874999999	-863.7200927734377	1500.27001953125	282.0228576660156	-923.1348876953127	1210.3203125	283.3880920410156	-674.2585449218751	1241.8818359375	263.5584106445312	-726.9680786132814	1412.625854492188	271.2367858886718	-946.9963989257815	1291.650634765625	172.8520050048827	-911.7984008789065	1438.254760742188	191.7942504882812	-846.335632324219	1437.022216796875	91.64718627929679	-799.0921630859377	1435.34814453125	79.6958694458007	-869.716003417969	1141.12109375	-15.41381072998058	-911.852722167969	1124.985107421875	71.04520416259756	-919.2061157226565	1115.59228515625	15.08132171630849	-812.3762207031252	867.5552368164065	8.149219512939355	-854.9114379882815	880.089782714844	-55.38654708862317	-798.798278808594	779.6077270507815	3.374900341033839	-880.9061279296877	803.3372192382815	-63.68371963500989	-916.157165527344	1283.437622070313	417.4837341308594	-892.1994628906252	1426.493408203125	384.4331359863281	-813.2773437500003	1414.099365234375	477.9603576660156	-761.5916748046877	1416.89697265625	480.7764282226562	-721.237487792969	1125.102172851563	574.0613403320312	-767.540954589844	1100.251586914063	494.0773620605469	-752.8791503906252	1078.25244140625	555.8473510742188	-499.3578491210939	972.157165527344	501.7298889160157	-541.010681152344	927.6887207031252	552.9033203125	-424.7278442382814	918.7573852539065	499.1752624511719	-505.029022216797	869.3240966796877	551.3306884765625	
42	0.41	-696.4480590820314	966.5592041015627	143.6537780761718	-890.4084472656252	990.8762817382815	228.2626342773437	-888.2054443359377	988.283630371094	313.4510498046874	-708.2443847656251	965.165710449219	408.3209533691406	-780.2978515625002	898.5757446289065	85.1389617919921	-603.9367675781251	491.4572143554689	93.81831359863276	-605.4789428710939	498.6987304687501	230.4872436523437	-613.2256469726564	440.9103393554689	91.65575408935541	-545.3165283203126	419.1368713378907	141.2981567382812	-644.3707885742189	82.08833312988283	136.438735961914	-613.0455322265626	100.098373413086	227.4979400634765	-683.4360961914064	45.37004470825196	195.2780151367187	-494.4080505371095	40.2320671081543	208.2907562255859	-491.0023803710939	56.45798873901369	159.5782928466797	-537.9881591796876	35.02411270141602	109.7947311401367	-797.810729980469	880.2906494140627	456.0251770019531	-854.2340087890627	462.1636047363282	395.3451538085938	-854.077575683594	474.1141357421876	272.0286560058593	-886.0125732421877	421.3799438476564	392.8710632324219	-825.3516845703127	392.0216674804689	341.6613159179687	-973.0769653320315	66.91334533691408	346.7891540527343	-927.7641601562502	88.06166076660158	263.1326293945312	-1007.740661621094	29.69349479675294	297.2048339843749	-815.358337402344	23.5185661315918	271.9891967773437	-797.4732666015627	31.72580909729005	328.2497253417968	-865.2071533203127	15.77821350097657	379.4311218261718	-849.0886230468752	1497.2607421875	282.0542297363281	-909.3130493164065	1207.452880859375	282.9251708984374	-660.0124511718751	1238.458862304688	263.605712890625	-712.3853149414064	1409.278076171875	271.0425109863281	-933.336853027344	1288.612426757813	173.5644378662109	-897.6130371093752	1435.436401367188	192.0585479736328	-832.4942626953127	1433.975952148438	91.94664001464835	-785.5784301757815	1432.178833007813	79.47210693359366	-861.0493774414065	1138.982666015625	-14.99092483520519	-901.9902343750002	1123.12744140625	71.73027038574209	-910.3300781250002	1114.242797851563	16.0376968383788	-808.105163574219	864.547790527344	6.499327659606837	-851.205993652344	878.1068115234377	-56.33898544311536	-795.8862915039065	776.4898681640627	0.9449139833449345	-878.681579589844	801.797790527344	-64.55947113037122	-901.509460449219	1280.481567382813	417.3401184082031	-877.526306152344	1423.6181640625	384.5547485351562	-798.2836303710941	1411.153564453125	477.9722290039062	-746.5672607421877	1414.147094726563	480.5968322753906	-703.8967895507815	1123.671142578125	575.7678833007812	-750.2557373046877	1097.6318359375	496.3065795898438	-734.6368408203127	1076.056518554688	558.0218505859375	-478.6111450195314	977.619323730469	501.0040588378907	-518.3071289062502	931.625427246094	552.3298950195312	-402.2268981933595	926.9387817382815	497.6392211914063	-480.3509521484377	874.4638671875002	550.1626586914062	
43	0.42	-681.8126220703126	962.408630371094	143.7533569335937	-876.1818847656252	987.1956787109377	227.3335876464843	-874.443054199219	985.2645263671877	312.5217895507812	-694.8699340820314	961.8106079101565	408.7289733886719	-765.8128662109376	894.1544189453127	85.43199920654288	-588.6761474609376	487.5296936035157	95.83653259277338	-592.0951538085939	493.6459350585939	233.203125	-595.4813842773439	436.6939697265626	93.7811660766601	-526.7679443359376	418.1788024902345	143.4949951171875	-601.8232421875001	76.12305450439455	135.5074005126953	-571.7336425781251	95.91308593750001	226.6781311035156	-638.1806640625001	36.56734085083009	194.3334503173828	-449.2774047851564	44.50424194335938	206.8723449707031	-447.0476074218751	61.00424957275392	158.0848236083984	-492.6163940429689	36.54463577270509	108.3079681396484	-785.6414794921877	878.068542480469	455.9695739746094	-848.478210449219	461.229705810547	395.4794921875	-847.6003417968752	473.1918945312501	272.2469482421874	-880.8975830078127	420.9162902832032	392.8493041992188	-820.8220214843752	390.4463195800782	342.0438537597656	-972.6209716796877	67.50958251953126	346.1444396972656	-926.8748779296877	88.09864807128908	262.5803222656249	-1007.384826660156	30.5074577331543	296.3782653808593	-815.0893554687502	23.35780715942383	271.9870910644531	-797.3125610351565	31.43906211853028	328.3955383300781	-865.4031982421877	15.81167793273926	379.2518920898437	-834.4077758789065	1494.04345703125	282.0184020996093	-895.4167480468752	1204.4345703125	282.3544006347656	-645.7273559570314	1234.877197265625	263.5839538574219	-697.7150878906251	1405.748901367188	270.7660217285156	-919.549255371094	1285.415405273438	174.1171569824218	-883.3442382812502	1432.43115234375	192.2140045166015	-818.562194824219	1430.7607421875	92.14963531494132	-772.0046386718752	1428.886352539063	79.14437103271476	-852.1250000000002	1136.681762695313	-14.57346630096446	-891.7720336914065	1121.0439453125	72.40592193603506	-901.1162109375002	1112.666870117188	17.01677131652821	-803.0801391601565	861.5579223632815	4.819728851318262	-847.024597167969	876.020446777344	-57.16236495971692	-792.0469970703127	773.4045410156252	-1.551154613494971	-875.7885742187502	800.0982055664065	-65.17732238769544	-886.8483886718752	1277.349609375	417.05615234375	-862.7761230468752	1420.589477539063	384.578125	-783.1769409179691	1408.002075195313	477.8750305175781	-731.411315917969	1411.173461914063	480.304443359375	-686.661315917969	1121.998779296875	577.2800903320312	-733.0252075195315	1094.769287109375	498.3453979492188	-716.5359497070315	1073.671997070313	559.9852294921875	-458.3809814453127	982.5811157226565	500.2243347167969	-496.1404724121095	935.2297363281252	551.7144775390625	-380.4221191406251	934.5427856445315	496.1021728515626	-456.3483276367189	879.2899169921877	549.0267333984376	
44	0.43	-667.0953979492189	958.1959228515627	143.7945098876953	-861.8909912109377	983.4091796875002	226.3605651855468	-860.5970458984377	982.1254882812502	311.5404052734374	-681.4358520507814	958.4193115234377	409.1077270507813	-751.3383789062501	889.5454101562502	85.69472503662102	-573.9312133789064	483.3951416015626	97.76065063476558	-578.9414062500001	488.3154907226564	235.9286651611328	-578.2216186523439	432.4751281738282	95.85091400146479	-508.7711486816407	417.1456604003907	145.6159210205078	-560.2940673828126	71.53781890869142	134.6201171875	-531.3206787109376	93.03218841552736	225.8359985351562	-593.8051757812501	29.31352615356446	193.4944305419922	-405.6439208984376	50.00561141967775	205.4565277099609	-404.5692749023439	66.71008300781251	156.5923461914062	-448.6880798339845	39.31990432739259	106.857307434082	-773.3834228515627	875.7572021484377	455.8757019042969	-842.2986450195315	460.2650756835939	395.4695434570312	-840.6054687500002	472.221160888672	272.3274536132812	-875.3579711914065	420.4446716308595	392.6761169433594	-815.9175415039065	388.8757629394532	342.2731018066406	-972.121032714844	68.27114868164064	345.4401855468749	-925.919372558594	88.23888397216798	261.9289550781249	-1007.038391113281	31.5196933746338	295.4958801269531	-814.7676391601565	23.19635200500489	271.9749145507812	-797.1102294921877	31.14848136901856	328.5341491699218	-865.6008911132815	15.88958072662354	379.0240783691406	-819.6755371093752	1490.683227539063	281.8954772949218	-881.418395996094	1201.319702148438	281.6979675292968	-631.3737182617189	1231.218017578125	263.4976501464844	-682.9567871093751	1402.110473632813	270.4030456542969	-905.621276855469	1282.105590820313	174.5019073486327	-868.9832153320315	1429.286743164063	192.2498626708984	-804.5236816406252	1427.42529296875	92.24319458007804	-758.3441772460939	1425.51171875	78.70997619628898	-842.8668212890627	1134.253540039063	-14.17745399475108	-881.1751098632815	1118.772338867188	73.05655670166006	-891.5047607421877	1110.894165039063	17.9917926788329	-797.292663574219	858.5795898437502	3.119411945342921	-842.3093261718752	873.8479003906252	-57.87322998046887	-787.3108520507815	770.3331298828127	-4.079876899719336	-872.184020996094	798.2573242187502	-65.57371520996107	-872.164978027344	1274.101318359375	416.647705078125	-847.9532470703127	1417.465454101563	384.4941711425781	-767.9758911132815	1404.719360351563	477.6668701171875	-716.1465454101565	1408.051513671875	479.9023132324219	-669.5576782226565	1120.133544921875	578.577392578125	-715.8713378906252	1091.733032226563	500.1513061523438	-698.6097412109377	1071.144653320313	561.7002563476562	-438.6660156250002	987.014587402344	499.4195861816407	-474.5556640625002	938.460876464844	551.05908203125	-359.3109436035157	941.5073852539065	494.6063232421876	-433.0758666992189	883.7381591796877	547.9199829101564	
